<svg xmlns="http://www.w3.org/2000/svg" width="16" height="16" viewBox="0 0 16 16" fill="none"><g clip-path="url(#aud)"><path fill="#0052B4" d="M16 8A8 8 0 1 1 0 8c0 .002 8-8 8-8a8 8 0 0 1 8 8Z"/><path fill="#F0F0F0" d="M7.979 8H8v-.021A7.196 7.196 0 0 1 7.979 8Z"/><path fill="#F0F0F0" d="M8 4.174V0h-.001A8 8 0 0 0 0 8h4.174V5.65L6.524 8H7.98L8 7.979V6.524l-2.35-2.35H8Z"/><path fill="#D80027" d="M4.047 1.044a8.038 8.038 0 0 0-3.004 3.004V8H3.13V3.131H8V1.044H4.047Z"/><path fill="#D80027" d="M8 7.017 5.158 4.175h-.984L8 8v-.984Z"/><path fill="#F0F0F0" d="m4.825 9.392.439.918.991-.23-.444.916.798.633-.993.223.003 1.018-.794-.637-.794.637.003-1.018-.993-.223.797-.633-.444-.915.992.229.439-.918ZM11.978 11.13l.22.46.495-.115-.222.458.399.316-.497.112.002.509-.397-.318-.397.318.001-.509-.496-.112.398-.316-.222-.458.496.115.22-.46ZM9.935 6.26l.22.46.496-.115-.222.458.398.316-.496.112.001.509-.397-.318L9.538 8l.002-.509-.497-.112.4-.316-.223-.458.496.115.22-.46ZM11.978 3.479l.22.459.495-.115-.222.458.399.316-.497.112.002.509-.397-.319-.397.319.001-.51-.496-.111.398-.316-.222-.458.496.115.22-.46ZM13.761 5.565l.22.46.496-.115-.222.458.398.316-.496.112.001.509-.396-.319-.397.319v-.51l-.495-.111.398-.316-.222-.458.496.114.22-.459ZM12.486 8l.172.531h.56l-.453.329.173.531-.452-.328-.452.328.172-.531-.452-.329h.56L12.485 8Z"/></g><defs><clipPath id="aud"><path fill="#fff" d="M0 0h16v16H0z"/></clipPath></defs></svg>