<svg xmlns="http://www.w3.org/2000/svg" width="16" height="16" viewBox="0 0 16 16" fill="none"><g clip-path="url(#cad)"><path fill="#F0F0F0" d="M8 16A8 8 0 1 0 8 0a8 8 0 0 0 0 16Z"/><path fill="#D80027" d="M16 8A8 8 0 0 0 11.478.794v14.412A8 8 0 0 0 16 8ZM0 8a8 8 0 0 0 4.522 7.206V.794A8 8 0 0 0 0 8ZM9.391 9.043l1.392-.695L10.087 8v-.696L8.696 8l.695-1.391h-.695L8 5.565 7.304 6.61H6.61L7.304 8l-1.391-.696V8l-.696.348 1.392.695-.348.696h1.391v1.044h.696V9.739h1.391l-.348-.696Z"/></g><defs><clipPath id="cad"><path fill="#fff" d="M0 0h16v16H0z"/></clipPath></defs></svg>