<svg xmlns="http://www.w3.org/2000/svg" width="16" height="16" viewBox="0 0 16 16" fill="none"><g clip-path="url(#eur)"><path fill="#0052B4" d="M8 16A8 8 0 1 0 8 0a8 8 0 0 0 0 16Z"/><path fill="#FFDA44" d="m8 3.13.259.798h.838l-.678.493.259.797L8 4.725l-.678.493.259-.797-.678-.493h.838L8 3.131ZM4.557 4.557l.746.38.593-.592-.131.828.747.38-.828.131-.131.828-.38-.747-.829.131.593-.592-.38-.747ZM3.13 8l.798-.259v-.838l.492.678.797-.259L4.725 8l.492.678-.797-.259-.492.679v-.839L3.13 8ZM4.557 11.444l.38-.747-.593-.593.828.131.38-.747.132.828.828.131-.747.38.131.829-.593-.593-.746.38ZM8 12.87l-.26-.797h-.837l.678-.493-.26-.797.679.493.678-.493-.259.797.678.493H8.26l-.26.797ZM11.443 11.444l-.747-.381-.592.593.13-.828-.746-.38.828-.132.131-.828.38.747.828-.131-.592.593.38.747ZM12.87 8l-.798.26v.838l-.492-.679-.797.26.492-.679-.492-.678.797.26.492-.679v.838l.798.26ZM11.443 4.557l-.38.747.592.592-.828-.13-.38.746-.131-.828-.828-.131.747-.38-.131-.828.592.592.747-.38Z"/></g><defs><clipPath id="eur"><path fill="#fff" d="M0 0h16v16H0z"/></clipPath></defs></svg>